<?xml version="1.0" encoding="UTF-8"?>
<!DOCTYPE svg PUBLIC "-//W3C//DTD SVG 1.1//EN" "http://www.w3.org/Graphics/SVG/1.1/DTD/svg11.dtd">
<!-- Creator: CorelDRAW 2021 (64-Bit) -->
<svg xmlns="http://www.w3.org/2000/svg" xml:space="preserve" width="20.9524mm" height="26.7797mm" version="1.1" style="shape-rendering:geometricPrecision; text-rendering:geometricPrecision; image-rendering:optimizeQuality; fill-rule:evenodd; clip-rule:evenodd"
viewBox="0 0 770.39 984.65"
 xmlns:xlink="http://www.w3.org/1999/xlink"
 xmlns:xodm="http://www.corel.com/coreldraw/odm/2003">
 <defs>
  <style type="text/css">
   <![CDATA[
    .fil0 {fill:#46A98A;fill-rule:nonzero}
   ]]>
  </style>
 </defs>
 <g id="Capa_x0020_1">
  <metadata id="CorelCorpID_0Corel-Layer"/>
  <path class="fil0" d="M357.3 187.1l11.08 -1.54c53.11,-5.98 102,11.88 139.48,42.36 37.63,30.55 64.15,74.38 72.25,119.49l1.65 11.15c6.46,55.6 -9.17,105.08 -37.96,143.11 -31.65,41.89 -79.52,69.87 -131.3,76.99l-1.03 0.11c-57.36,7.63 -109.33,-9.46 -148.68,-40.75 -39.32,-31.29 -66.09,-77.13 -72.88,-126.61l-0.22 -1.65c-7.37,-57.03 7.55,-105.81 35.65,-143.44 31.4,-42.07 79.52,-69.76 131.12,-79l0.84 -0.22zm16.95 60.19l-7.7 1.17c-36.24,6.6 -69.79,25.89 -91.47,54.98 -18.96,25.41 -29.01,58.79 -23.95,98.36l0.26 1.76c4.77,33.6 23.11,64.59 49.99,85.97 26.96,21.42 62.83,33.12 102.51,27.76l0.4 -0.04c35.43,-4.88 68.22,-24.13 90.01,-52.92 19.62,-25.97 30.33,-59.93 26,-98.26l-1.32 -8.58c-5.57,-30.44 -24.02,-60.3 -50.14,-81.53 -25.3,-20.58 -57.98,-32.75 -93.08,-28.94l-1.5 0.26zm-210.96 419.28c3.92,4.77 7.3,9.1 10.41,14.6 5.21,5.43 9.43,11.88 13.13,17.42l7.08 10.45c6.31,5.03 8.99,9.98 12.28,16.8 6.13,5.97 11.99,13.49 16.87,19.77l5.21 6.49c18.6,21.86 39.43,45.73 60.37,68.14 21.02,22.52 42.73,44.27 63.19,62.17l34.29 30.92c16.32,-15.04 31.87,-28.87 48.08,-44.49 35.79,-34.4 60.33,-58.02 100.79,-106.43 52.37,-62.72 105.52,-137.17 138.93,-217.68 32.42,-78.12 46.29,-162.51 22.52,-247.75 -10.75,-38.51 -27.95,-72.11 -48.78,-100.64 -24.13,-33.16 -53.33,-59.86 -83.03,-80.03 -33.52,-22.74 -75.7,-40.53 -121.69,-48.96 -41.15,-7.55 -85.57,-7.63 -129.58,2.83 -40.38,9.61 -75.92,25.82 -105.99,45.7 -34.29,22.67 -61.95,50.21 -82.23,78.42 -49.33,68.58 -66.9,138.23 -62.54,207.92 4.47,71.52 31.84,144.07 71.63,216.1l10.71 17.49c6.57,10.38 13.64,21.6 18.34,30.77zm-44.86 42.95c-5.39,-4.47 -9.31,-10.53 -10.82,-17.72 -0.37,-1.83 -8,-11.74 -15.19,-23.29l-12.14 -19.95c-44.12,-79.95 -74.42,-161.05 -79.52,-242.47 -5.21,-83.41 15.63,-166.55 74.2,-247.97 24.46,-33.96 57.47,-66.94 98.22,-93.89 35.98,-23.77 78.16,-43.1 125.87,-54.43 52.59,-12.51 105.74,-12.4 155.03,-3.34 54.87,10.09 105.3,31.4 145.35,58.65 35.03,23.84 69.54,55.49 98.18,94.84 24.98,34.26 45.63,74.46 58.46,120.52 28.02,100.46 12.29,198.24 -24.94,288.02 -36.27,87.4 -92.94,166.99 -148.61,233.66 -42.14,50.43 -67.85,75.19 -105.41,111.28 -16.43,15.81 -32.31,30.26 -49,45.48 -7.74,6.97 -16.32,14.67 -26.59,20.72 -11.48,7.45 -26.99,6.68 -37.63,-2.93l-53.18 -47.97c-22.08,-19.37 -45.22,-42.54 -67.41,-66.31 -22.41,-24.06 -43.75,-48.41 -62.38,-70.35l-6.31 -7.92c-4.29,-5.57 -4.92,-10.2 -7.37,-11.44 -5.72,-2.93 -10.64,-7.63 -13.72,-13.83l-1.58 -3.19c-5.79,-3.81 -10.31,-9.57 -12.5,-16.62l-4.25 -6.31c-0.96,-1.43 1.21,-1.87 2.6,-2.28l-0.11 -1.5 -0.73 -0.29c-7.85,-2.97 -14.49,-9.1 -17.83,-17.46l-0.7 -1.72z"/>
 </g>
</svg>
